{
  "accessors": [
    {
      "bufferView": 1,
      "componentType": 5126,
      "count": 56130,
      "max": [
        70.96592712402344,
        70.96592712402344,
        70.96592712402344
      ],
      "min": [
        -0.9659299850463867,
        -0.9659299850463867,
        -0.9659299850463867
      ],
      "type": "VEC3"
    },
    {
      "bufferView": 1,
      "byteOffset": 673560,
      "componentType": 5126,
      "count": 56130,
      "max": [
        0.9764403700828552,
        0.983283519744873,
        0.9836307168006897
      ],
      "min": [
        -0.968572735786438,
        -0.9836996793746948,
        -0.9836294651031494
      ],
      "type": "VEC3"
    },
    {
      "bufferView": 0,
      "componentType": 5125,
      "count": 327516,
      "type": "SCALAR"
    }
  ],
  "asset": {
    "extras": {
      "author": "ayvlasov (https://sketchfab.com/ayvlasov)",
      "license": "CC-BY-4.0 (http://creativecommons.org/licenses/by/4.0/)",
      "source": "https://sketchfab.com/3d-models/percolation-lattice-tree-bff509120e87457fa9deeb82266a4e95",
      "title": "Percolation Lattice Tree"
    },
    "generator": "Sketchfab-14.97.0",
    "version": "2.0"
  },
  "bufferViews": [
    {
      "buffer": 0,
      "byteLength": 1310064,
      "name": "floatBufferViews",
      "target": 34963
    },
    {
      "buffer": 0,
      "byteLength": 1347120,
      "byteOffset": 1310064,
      "byteStride": 12,
      "name": "floatBufferViews",
      "target": 34962
    }
  ],
  "buffers": [
    {
      "byteLength": 2657184,
      "uri": "scene.bin"
    }
  ],
  "materials": [
    {
      "doubleSided": true,
      "name": "Material",
      "pbrMetallicRoughness": {
        "baseColorFactor": [
          0.828292110066717,
          0.5339901418592635,
          0.0660608179985776,
          1.0
        ],
        "metallicFactor": 0.7854952555456909,
        "roughnessFactor": 0.10546729884080419
      }
    }
  ],
  "meshes": [
    {
      "name": "Percolat8X8X8_0",
      "primitives": [
        {
          "attributes": {
            "NORMAL": 1,
            "POSITION": 0
          },
          "indices": 2,
          "material": 0,
          "mode": 4
        }
      ]
    }
  ],
  "nodes": [
    {
      "children": [
        1
      ],
      "matrix": [
        1.0,
        0.0,
        0.0,
        0.0,
        0.0,
        2.220446049250313e-16,
        -1.0,
        0.0,
        0.0,
        1.0,
        2.220446049250313e-16,
        0.0,
        0.0,
        0.0,
        0.0,
        1.0
      ],
      "name": "Sketchfab_model"
    },
    {
      "children": [
        2,
        4
      ],
      "name": "Root"
    },
    {
      "children": [
        3
      ],
      "matrix": [
        -0.29086000000000006,
        0.9551700000000001,
        -0.05519000000000001,
        0.0,
        -0.7711,
        -0.19988000000000003,
        0.6045200000000001,
        0.0,
        0.5663900000000001,
        0.21839000000000003,
        0.7946700000000001,
        0.0,
        4.076250000000001,
        1.00545,
        5.903860000000001,
        1.0
      ],
      "name": "Lamp"
    },
    {
      "name": "Lamp"
    },
    {
      "children": [
        5
      ],
      "name": "Percolat8X8X8"
    },
    {
      "mesh": 0,
      "name": "Percolat8X8X8_0"
    }
  ],
  "scene": 0,
  "scenes": [
    {
      "name": "Sketchfab_Scene",
      "nodes": [
        0
      ]
    }
  ]
}
